<svg xmlns="http://www.w3.org/2000/svg" width="256" height="256" viewBox="0 0 100 100"><rect width="100" height="100" rx="20" fill="#6e9be7"></rect><path d="M36.41 77.36L36.41 77.36Q34.61 77.36 33.53 76.28Q32.45 75.20 32.45 73.40L32.45 73.40L32.45 26.60Q32.45 24.80 33.53 23.72Q34.61 22.64 36.41 22.64L36.41 22.64L66.29 22.64Q66.56 23.09 66.83 23.86Q67.10 24.62 67.10 25.52L67.10 25.52Q67.10 27.05 66.38 27.95Q65.66 28.85 64.31 28.85L64.31 28.85L39.74 28.85L39.74 46.22L63.50 46.22Q63.77 46.67 64.04 47.44Q64.31 48.20 64.31 49.10L64.31 49.10Q64.31 50.63 63.59 51.48Q62.87 52.34 61.52 52.34L61.52 52.34L39.74 52.34L39.74 71.24L66.74 71.24Q67.01 71.69 67.28 72.41Q67.55 73.13 67.55 74.12L67.55 74.12Q67.55 75.65 66.83 76.50Q66.11 77.36 64.76 77.36L64.76 77.36L36.41 77.36Z" fill="#fff"></path></svg>